<svg xmlns="http://www.w3.org/2000/svg" xmlns:xlink="http://www.w3.org/1999/xlink" version="1.1" x="0px" y="0px" viewBox="0 0 100 125" enable-background="new 0 0 100 100" xml:space="preserve"><g><path fill="#000000" d="M48,1C31.894,1,18.791,14.733,18.791,31.614c0,11.321,4.357,16.482,8.57,21.474   c3.958,4.689,7.697,9.123,7.717,18.615c-0.002,0.027-0.016,0.051-0.016,0.078v6.186c0,0.479,0.388,0.865,0.867,0.865   c0.134,0,0.257-0.036,0.371-0.09l23.987-6.145l-0.005-0.016c0.363-0.094,0.638-0.409,0.638-0.801c0-0.002,0-0.002,0-0.004l0,0   c0-9.546,3.751-13.987,7.721-18.689c4.213-4.991,8.569-10.152,8.569-21.474C77.21,14.733,64.106,1,48,1z M67.353,52.001   c-3.876,4.592-7.871,9.352-8.095,18.938H36.744c-0.224-9.586-4.219-14.346-8.095-18.938c-4.203-4.978-8.172-9.681-8.172-20.387   C20.477,15.663,32.823,2.686,48,2.686s27.525,12.977,27.525,28.928C75.525,42.32,71.556,47.023,67.353,52.001z"/><path fill="#000000" d="M60.077,84.773c-0.067,0-0.13,0.024-0.194,0.04l-0.004-0.016L35.731,90.63l0.004,0.016   c-0.37,0.089-0.649,0.406-0.649,0.803v1.684c0,0.465,0.377,0.843,0.843,0.843c5.897,0,5.897,2.537,5.897,3.372   c0,0.464,0.377,0.842,0.843,0.842h10.668c0.465,0,0.842-0.378,0.842-0.842c0-0.835,0-3.372,5.898-3.372   c0.465,0,0.843-0.378,0.843-0.843v-7.516C60.92,85.151,60.542,84.773,60.077,84.773z"/><path fill="#000000" d="M60.077,74.663c-0.067,0-0.13,0.023-0.194,0.039l-0.004-0.016l-24.148,5.832l0.003,0.014   c-0.369,0.089-0.649,0.406-0.649,0.805v1.685c0,0.466,0.377,0.844,0.843,0.844c0.069,0,0.13-0.024,0.194-0.04l0.003,0.015   l24.149-5.83l-0.003-0.017c0.368-0.09,0.647-0.407,0.647-0.803v-1.686C60.92,75.04,60.542,74.663,60.077,74.663z"/><path fill="#000000" d="M60.896,80.363c-0.107-0.452-0.56-0.744-1.017-0.62l-24.148,5.83c-0.021,0.005-0.036,0.019-0.056,0.025   c-0.06,0.019-0.114,0.046-0.168,0.077c-0.043,0.025-0.083,0.051-0.121,0.083c-0.042,0.036-0.077,0.077-0.112,0.122   c-0.032,0.041-0.063,0.081-0.087,0.129c-0.025,0.047-0.04,0.097-0.056,0.148c-0.016,0.054-0.029,0.108-0.033,0.165   c-0.001,0.023-0.014,0.045-0.014,0.068v1.686c0,0.467,0.377,0.844,0.843,0.844c0.069,0,0.13-0.023,0.194-0.039l0.003,0.014   l24.149-5.831l-0.003-0.017c0.368-0.09,0.647-0.405,0.647-0.802v-1.55c0-0.024-0.012-0.045-0.015-0.066   C60.913,80.542,60.918,80.453,60.896,80.363z"/></g><text x="0" y="115" fill="#000000" font-size="5px" font-weight="bold" font-family="'Helvetica Neue', Helvetica, Arial-Unicode, Arial, Sans-serif">Created by Blake Thompson</text><text x="0" y="120" fill="#000000" font-size="5px" font-weight="bold" font-family="'Helvetica Neue', Helvetica, Arial-Unicode, Arial, Sans-serif">from the Noun Project</text></svg>